<svg width="256" height="256" viewBox="0 0 1000 1000" fill="none" xmlns="http://www.w3.org/2000/svg">
    <style>
        .logofill { fill: #d97706;
        stroke: none; }
        @media (prefers-color-scheme: dark) {
            .logofill { fill: #fcd34d; }
        }
    </style>
  <path class="logofill"
    d="M320.2 500c0-27.81-22.64-50.34-50.57-50.34H101.07c-27.93 0-50.57 22.54-50.57 50.34s22.64 50.34 50.57 50.34h168.56c27.93 0 50.57-22.54 50.57-50.34Zm264.08 50.34c27.93 0 50.57-22.54 50.57-50.34s-22.64-50.34-50.57-50.34H415.72c-27.93 0-50.57 22.54-50.57 50.34s22.64 50.34 50.57 50.34h168.56Z" />
  <path class="logofill"
    d="M834.71 369.02C782.19 236.1 652.16 141.99 500 141.99s-279.64 92.29-333.14 223.16h99.97C313.54 285.24 400.44 231.49 500 231.49c108.4 0 201.8 63.7 244.66 155.52-38.89 23.56-64.86 66.14-64.86 114.77s25.41 90.24 63.57 113.95C699.95 706.07 607.31 768.5 500 768.5c-99.56 0-186.46-53.74-233.17-133.66h-99.97C220.36 765.71 349.33 858 500 858s279.77-92.33 333.24-223.27c65.67-9.02 116.26-65.09 116.26-132.95s-49.83-123.12-114.79-132.77Zm-20.06 205.06c-40.04 0-72.61-32.43-72.61-72.29s32.57-72.29 72.61-72.29 72.61 32.43 72.61 72.29-32.57 72.29-72.61 72.29Z" />
</svg>
